
<svg xmlns="http://www.w3.org/2000/svg" version="1.1" xmlns:xlink="http://www.w3.org/1999/xlink" preserveAspectRatio="none" x="0px" y="0px" width="550px" height="400px" viewBox="0 0 550 400">
<defs>
<g id="Layer0_0_FILL">
<path fill="#000000" stroke="none" d="
M 133 96.5
L 101.6 170.05 133 243.55 164.4 170 133 96.5
M 241.5 325.55
L 272.9 252 241.5 178.5 210.1 252.05 241.5 325.55
M 380.9 170
L 349.5 96.5 318.1 170.05 349.5 243.55 380.9 170 Z"/>
</g>

<path id="Layer0_0_1_STROKES" stroke="#000000" stroke-width="10" stroke-linejoin="round" stroke-linecap="round" fill="none" d="
M 409.5 96.5
L 440.9 170 409.5 243.55
M 389.5 96.5
L 420.9 170 389.5 243.55
M 318.1 170.05
L 349.5 96.5 380.9 170 349.5 243.55 318.1 170.05 Z
M 369.5 96.5
L 400.9 170 369.5 243.55
M 193 96.5
L 224.4 170 193 243.55
M 173 96.5
L 204.4 170 173 243.55
M 101.6 170.05
L 133 96.5 164.4 170 133 243.55 101.6 170.05 Z
M 210.1 252.05
L 241.5 178.5 272.9 252 241.5 325.55 210.1 252.05 Z
M 261.5 178.5
L 292.9 252 261.5 325.55
M 281.5 178.5
L 312.9 252 281.5 325.55
M 153 96.5
L 184.4 170 153 243.55
M 301.5 178.5
L 332.9 252 301.5 325.55"/>
</defs>

<g transform="matrix( 1, 0, 0, 1, 0,0) ">
<use xlink:href="#Layer0_0_FILL"/>

<use xlink:href="#Layer0_0_1_STROKES"/>
</g>
</svg>
