<?xml version="1.0" encoding="UTF-8" standalone="no"?>
<svg
   xmlns:dc="http://purl.org/dc/elements/1.1/"
   xmlns:cc="http://creativecommons.org/ns#"
   xmlns:rdf="http://www.w3.org/1999/02/22-rdf-syntax-ns#"
   xmlns:svg="http://www.w3.org/2000/svg"
   xmlns="http://www.w3.org/2000/svg"
   xmlns:xlink="http://www.w3.org/1999/xlink"
   xmlns:sodipodi="http://sodipodi.sourceforge.net/DTD/sodipodi-0.dtd"
   xmlns:inkscape="http://www.inkscape.org/namespaces/inkscape"
   version="1.1"
   preserveAspectRatio="none"
   x="0px"
   y="0px"
   width="550px"
   height="400px"
   viewBox="0 0 550 400"
   id="svg14"
   sodipodi:docname="logo44.svg"
   inkscape:version="0.92.2 2405546, 2018-03-11">
  <metadata
     id="metadata18">
    <rdf:RDF>
      <cc:Work
         rdf:about="">
        <dc:format>image/svg+xml</dc:format>
        <dc:type
           rdf:resource="http://purl.org/dc/dcmitype/StillImage" />
      </cc:Work>
    </rdf:RDF>
  </metadata>
  <sodipodi:namedview
     pagecolor="#ffffff"
     bordercolor="#666666"
     borderopacity="1"
     objecttolerance="10"
     gridtolerance="10"
     guidetolerance="10"
     inkscape:pageopacity="0"
     inkscape:pageshadow="2"
     inkscape:window-width="1366"
     inkscape:window-height="717"
     id="namedview16"
     showgrid="false"
     showguides="true"
     inkscape:guide-bbox="true"
     inkscape:zoom="1.2915466"
     inkscape:cx="176.01768"
     inkscape:cy="204.6783"
     inkscape:window-x="0"
     inkscape:window-y="27"
     inkscape:window-maximized="1"
     inkscape:current-layer="svg14" />
  <defs
     id="defs6">
    <g
       id="Layer0_0_FILL">
      <path
         fill="#000000"
         stroke="none"
         d=" M 133 96.5 L 101.6 170.05 133 243.55 164.4 170 133 96.5 M 241.5 325.55 L 272.9 252 241.5 178.5 210.1 252.05 241.5 325.55 M 380.9 170 L 349.5 96.5 318.1 170.05 349.5 243.55 380.9 170 Z"
         id="path2" />
    </g>
    <path
       id="Layer0_0_1_STROKES"
       stroke="#000000"
       stroke-width="10"
       stroke-linejoin="round"
       stroke-linecap="round"
       fill="none"
       d=" M 409.5 96.5 L 440.9 170 409.5 243.55 M 389.5 96.5 L 420.9 170 389.5 243.55 M 318.1 170.05 L 349.5 96.5 380.9 170 349.5 243.55 318.1 170.05 Z M 369.5 96.5 L 400.9 170 369.5 243.55 M 193 96.5 L 224.4 170 193 243.55 M 173 96.5 L 204.4 170 173 243.55 M 101.6 170.05 L 133 96.5 164.4 170 133 243.55 101.6 170.05 Z M 210.1 252.05 L 241.5 178.5 272.9 252 241.5 325.55 210.1 252.05 Z M 261.5 178.5 L 292.9 252 261.5 325.55 M 281.5 178.5 L 312.9 252 281.5 325.55 M 153 96.5 L 184.4 170 153 243.55 M 301.5 178.5 L 332.9 252 301.5 325.55" />
  </defs>
  <g
     transform="translate(3.7499448,-54.426036)"
     id="g12">
    <use
       xlink:href="#Layer0_0_FILL"
       id="use8"
       x="0"
       y="0"
       width="100%"
       height="100%" />
    <use
       xlink:href="#Layer0_0_1_STROKES"
       id="use10"
       x="0"
       y="0"
       width="100%"
       height="100%" />
  </g>
  <text
     xml:space="preserve"
     style="font-style:normal;font-variant:normal;font-weight:normal;font-stretch:normal;font-size:77.18058014px;line-height:1.25;font-family:Nikoleta;-inkscape-font-specification:'Nikoleta, Normal';font-variant-ligatures:normal;font-variant-caps:normal;font-variant-numeric:normal;font-feature-settings:normal;text-align:start;letter-spacing:0px;word-spacing:0px;writing-mode:lr-tb;text-anchor:start;fill:#000000;fill-opacity:1;stroke:none;stroke-width:1.92951441"
     x="97.262772"
     y="362.99158"
     id="text26"><tspan
       sodipodi:role="line"
       id="tspan24"
       x="97.262772"
       y="362.99158"
       style="stroke-width:1.92951441">SYMPLEGMA</tspan></text>
</svg>
